<svg xmlns="http://www.w3.org/2000/svg" viewBox="0 0 150 150" width="150" height="150">
  <g id="mill" stroke="#2B2119" stroke-width="1.6">
    <!-- 44 milled edge ticks -->
    <g>
      <line x1="141" y1="75" x2="145" y2="75"/><line x1="140.6" y1="84.4" x2="144.6" y2="84.9"/>
      <line x1="139.4" y1="93.7" x2="143.3" y2="94.6"/><line x1="137.4" y1="102.8" x2="141.2" y2="104.2"/>
      <line x1="134.7" y1="111.6" x2="138.2" y2="113.4"/><line x1="131.2" y1="120" x2="134.5" y2="122.2"/>
      <line x1="127" y1="128" x2="130" y2="130.6"/><line x1="122.1" y1="135.5" x2="124.8" y2="138.4"/>
      <line x1="116.6" y1="142.4" x2="118.9" y2="145.6"/>
    </g>
  </g>
  <circle cx="75" cy="75" r="66" fill="#E8A33D" stroke="#2B2119" stroke-width="4"/>
  <circle cx="75" cy="75" r="60" fill="none" stroke="#2B2119" stroke-width="1.4"/>
  <!-- the tail-$ : a squirrel tail that is a dollar sign -->
  <g transform="translate(28 20) scale(0.78)" fill="none" stroke="#2B2119" stroke-linecap="round">
    <path d="M60 18 L60 122" stroke-width="10"/>
    <path d="M78 42 C78 27 58 23 45 30 C31 37 32 55 49 61 C67 67 79 72 75 88 C71 105 50 108 37 99" stroke-width="14"/>
    <circle cx="80" cy="40" r="8" fill="#2B2119" stroke="none"/>
    <circle cx="37" cy="100" r="8" fill="#2B2119" stroke="none"/>
  </g>
</svg>
